<svg xmlns="http://www.w3.org/2000/svg" xmlns:xlink="http://www.w3.org/1999/xlink" version="1.1" width="1000" height="1000" viewBox="0 0 1000 1000" xml:space="preserve">
<desc>Created with Fabric.js 3.5.0</desc>
<defs>
</defs>
<rect x="0" y="0" width="100%" height="100%" fill="rgba(255,255,255,0)"/>
<g transform="matrix(3.1091 0 0 3.1091 500.0049 500.0028)" id="814051">
<path style="stroke: none; stroke-width: 1; stroke-dasharray: none; stroke-linecap: butt; stroke-dashoffset: 0; stroke-linejoin: miter; stroke-miterlimit: 4; is-custom-font: none; font-file-url: none; fill: rgb(204,0,0); fill-rule: nonzero; opacity: 1;" vector-effect="non-scaling-stroke" transform=" translate(-146.2, -146.1986)" d="M 287 69.4 a 17.6 17.6 0 0 0 -13 -5.4 H 18.4 c -5 0 -9.3 1.8 -12.9 5.4 A 17.6 17.6 0 0 0 0 82.2 c 0 5 1.8 9.3 5.4 12.9 l 128 127.9 c 3.6 3.6 7.8 5.4 12.8 5.4 s 9.2 -1.8 12.8 -5.4 L 287 95 c 3.5 -3.5 5.4 -7.8 5.4 -12.8 c 0 -5 -1.9 -9.2 -5.5 -12.8 z" stroke-linecap="round"/>
</g>
</svg>